<?xml version="1.0" encoding="utf-8"?>
<!-- Generator: Adobe Illustrator 17.1.0, SVG Export Plug-In . SVG Version: 6.00 Build 0)  -->
<!DOCTYPE svg PUBLIC "-//W3C//DTD SVG 1.1//EN" "http://www.w3.org/Graphics/SVG/1.1/DTD/svg11.dtd">
<svg version="1.1" id="Layer_1" xmlns="http://www.w3.org/2000/svg" xmlns:xlink="http://www.w3.org/1999/xlink" x="0px" y="0px"
	 viewBox="0 0 130 70" style="enable-background:new 0 0 130 70;" xml:space="preserve">
<style type="text/css">
	.st0{fill:#004991;}
</style>
<g>
	
		<image style="overflow:visible;opacity:0.45;" width="105" height="66" xlink:href="805D51B7878AD181.png"  transform="matrix(1 0 0 1 13.5 2)">
	</image>
	<g>
		<g>
			<path class="st0" d="M84.8,21.8c-7.7-4.6-18.3-9.5-25.4-9.5c-3,0-5.1,0.9-6.2,2.8l-2.3,3.9c-1,1.6-1.4,4.2,0.6,8
				c-11.3,0.5-26,3.1-26,10.4v0.1v4.4c0,7.7,15.4,11.7,30.5,11.7c9,0,18.1-1.4,24-4.2c6,2.7,11.6,4.2,15.9,4.2l0,0
				c4.6,0,6.6-1.8,7.4-3.2l2.3-3.8C109.9,39.3,94.5,27.6,84.8,21.8z M67.4,38.5c-0.5-0.3-1-0.7-1.4-1l2.1-3.8c0.5,0.3,0.9,0.7,1.4,1
				L67.4,38.5z M70.1,35.1c0.5,0.3,1,0.6,1.4,1l-2.1,3.8c-0.5-0.3-1-0.6-1.4-1L70.1,35.1z M65.4,37.1c-0.5-0.4-0.9-0.7-1.4-1.1
				l2.1-3.7c0.5,0.4,0.9,0.7,1.4,1L65.4,37.1z M63.5,35.6c-0.5-0.4-0.9-0.8-1.4-1.1l2.1-3.7c0.4,0.4,0.9,0.7,1.4,1.1L63.5,35.6z
				 M61.6,34c-0.5-0.4-0.9-0.8-1.3-1.2l2-3.6c0.4,0.4,0.9,0.8,1.3,1.1L61.6,34z M59.7,32.3c-0.4-0.4-0.9-0.9-1.3-1.3l2-3.5
				c0.4,0.4,0.9,0.8,1.3,1.2L59.7,32.3z M58,30.4c-0.4-0.5-0.8-0.9-1.2-1.4l1.9-3.4c0.4,0.4,0.8,0.9,1.3,1.3L58,30.4z M56.3,28.5
				c-0.4-0.5-0.8-1-1.1-1.5l1.8-3.2c0.4,0.5,0.8,0.9,1.2,1.4L56.3,28.5z M54.7,26.2c-0.4-0.6-0.7-1.3-0.9-1.8l1.7-3
				c0.3,0.5,0.7,1.1,1.1,1.6L54.7,26.2z M53.6,20.6l0.9-1.4c0.1,0.5,0.4,1,0.6,1.6l-1.6,2.8C53.1,22.3,53.1,21.3,53.6,20.6z
				 M29.8,44.2c-0.8-0.8-1.2-1.6-1.2-2.4v-1.7c0.3,0.3,0.7,0.6,1.2,0.9V44.2z M32.3,45.9c-0.7-0.4-1.2-0.8-1.7-1.1v-3.3
				c0.5,0.3,1.1,0.6,1.7,0.9V45.9z M34.7,47.1c-0.6-0.2-1.2-0.5-1.7-0.8v-3.6c0.5,0.2,1.1,0.4,1.7,0.6V47.1z M37.1,47.9
				c-0.6-0.2-1.2-0.4-1.7-0.6v-3.9c0.6,0.2,1.1,0.3,1.7,0.5V47.9z M39.6,48.6c-0.6-0.2-1.3-0.3-1.9-0.5h0.1v-4
				c0.6,0.1,1.1,0.3,1.7,0.4L39.6,48.6L39.6,48.6z M42,49.1c-0.6-0.1-1.2-0.2-1.7-0.4v-4.1c0.6,0.1,1.1,0.2,1.7,0.3V49.1z
				 M44.4,49.5c-0.6-0.1-1.2-0.2-1.7-0.3v-4.2c0.6,0.1,1.1,0.2,1.7,0.2V49.5z M46.9,49.9c-0.6-0.1-1.2-0.1-1.7-0.2v-4.3
				c0.6,0.1,1.1,0.1,1.7,0.2V49.9z M49.3,50.1c-0.6,0-1.2-0.1-1.7-0.2v-4.3c0.6,0.1,1.2,0.1,1.7,0.1V50.1z M51.7,50.3
				c-0.6,0-1.2-0.1-1.7-0.1v-4.3c0.6,0,1.2,0.1,1.7,0.1V50.3L51.7,50.3z M54.2,50.3c-0.6,0-1.2,0-1.7-0.1v-4.3c0.6,0,1.2,0,1.7,0
				V50.3z M56.6,50.4c-0.2,0-0.4,0-0.5,0c-0.4,0-0.8,0-1.2,0V46c0.4,0,0.8,0,1.2,0c0.2,0,0.4,0,0.5,0V50.4z M59,50.3
				c-0.6,0-1.1,0-1.7,0V46c0.6,0,1.2,0,1.7,0V50.3z M61.5,50.2c-0.6,0-1.1,0.1-1.7,0.1v-4.3c0.6,0,1.2-0.1,1.7-0.1V50.2z M63.9,50
				c-0.6,0.1-1.1,0.1-1.7,0.1v-4.3c0.6,0,1.2-0.1,1.7-0.1V50z M66.3,49.7c-0.6,0.1-1.1,0.1-1.7,0.2v-4.3c0.6-0.1,1.2-0.1,1.7-0.2
				V49.7z M68.7,49.4c-0.6,0.1-1.1,0.2-1.7,0.3v-4.3c0.6-0.1,1.2-0.1,1.7-0.2V49.4z M56,44.6c-16.1,0-27.4-3.9-27.4-7.3
				c0-3.3,10.1-6.9,24.9-7.3c0.3,0.4,0.7,0.9,1.1,1.3c3.5,4.1,8.7,8.5,14.8,12.3C65.5,44.2,61,44.6,56,44.6z M71.2,48.9
				c-0.6,0.1-1.1,0.2-1.7,0.3V45c0.6-0.1,1.2-0.2,1.7-0.3V48.9z M69.6,40l0.4,0.2l2.1-3.8c0.5,0.3,1,0.6,1.5,0.9l-2.1,3.8
				C70.8,40.8,70.2,40.4,69.6,40z M74.2,37.8c0.3,0.2,0.5,0.3,0.8,0.5c0.2,0.1,0.5,0.3,0.7,0.4l-2.1,3.8c-0.3-0.2-0.5-0.3-0.8-0.5
				c-0.2-0.1-0.4-0.3-0.7-0.4L74.2,37.8z M73.6,48.3c-0.6,0.2-1.1,0.3-1.7,0.4v-3.6c0.6,0.3,1.2,0.7,1.7,1V48.3z M76.3,39
				c0.5,0.3,1,0.6,1.5,0.9l-2.1,3.8c-0.5-0.3-1-0.6-1.5-0.8L76.3,39z M74.3,48.1v-1.6c0.6,0.3,1.3,0.7,1.9,1
				C75.6,47.7,75,47.9,74.3,48.1z M76.2,44l2.1-3.8c0.5,0.3,1,0.5,1.5,0.8l-2.1,3.8C77.3,44.5,76.8,44.3,76.2,44z M80,45.9
				c-0.5-0.2-1-0.5-1.6-0.8l2.1-3.8c0.5,0.3,1,0.5,1.6,0.8L80,45.9z M80.6,46.2l2.1-3.7c0.5,0.3,1.1,0.5,1.6,0.7l-2.1,3.7
				C81.7,46.6,81.1,46.4,80.6,46.2z M82.9,47.1l2.1-3.7c0.5,0.2,1.1,0.5,1.6,0.7l-2.1,3.6C83.9,47.6,83.4,47.4,82.9,47.1z M85.1,48
				l2-3.6c0.5,0.2,1.1,0.4,1.6,0.6l-2,3.6C86.3,48.4,85.7,48.2,85.1,48z M87.5,48.8l2-3.5c0.6,0.2,1.1,0.4,1.7,0.6l-2,3.5
				C88.6,49.2,88.1,49,87.5,48.8z M89.9,49.5l1.9-3.4c0.6,0.2,1.2,0.3,1.7,0.5l-1.9,3.3C91.1,49.8,90.5,49.7,89.9,49.5z M92.4,50.1
				l1.9-3.3c0.6,0.1,1.2,0.3,1.8,0.4l-1.8,3.2C93.6,50.2,93,50.2,92.4,50.1z M95,50.4l1.7-3.1c0.7,0.1,1.3,0.2,1.9,0.2L97,50.3
				C96.4,50.4,95.7,50.4,95,50.4z M100.6,48.7c-0.5,0.8-1.4,1.3-2.8,1.6l1.5-2.8c0.8,0,1.4-0.1,2.1-0.2L100.6,48.7z M102.9,44.8
				c-1.8,3-13.4,0.5-27.3-7.8c-13.9-8.3-21.5-17.4-19.8-20.4c1.8-3,13.4-0.5,27.3,7.8C97,32.8,104.7,41.8,102.9,44.8z"/>
		</g>
	</g>
</g>
<g>
</g>
<g>
</g>
<g>
</g>
<g>
</g>
<g>
</g>
<g>
</g>
</svg>
