<?xml version="1.0" encoding="utf-8"?>
<!-- Generator: Adobe Illustrator 17.1.0, SVG Export Plug-In . SVG Version: 6.00 Build 0)  -->
<!DOCTYPE svg PUBLIC "-//W3C//DTD SVG 1.1//EN" "http://www.w3.org/Graphics/SVG/1.1/DTD/svg11.dtd">
<svg version="1.1" id="Layer_1" xmlns="http://www.w3.org/2000/svg" xmlns:xlink="http://www.w3.org/1999/xlink" x="0px" y="0px"
	 viewBox="0 0 130 70" style="enable-background:new 0 0 130 70;" xml:space="preserve">
<style type="text/css">
	.st0{fill:#004991;}
</style>
<g>
	<path class="st0" d="M77.7,46.7c0.9,0,1.8-0.8,1.8-1.8V27.1H49v17.8c0,0.9,0.8,1.8,1.8,1.8h1.1c2.5,0,3.6-0.4,5.1-0.8
		c1.7-0.5,3.6-0.9,7.1-0.9c3.4,0,5.3,0.5,7,0.9c1.5,0.4,2.7,0.8,5.5,0.8H77.7z"/>
	<path class="st0" d="M57.5,48c-1.5,0.3-2.9,0.6-5.7,0.6h-1.1c-2.1,0-3.7-1.4-3.7-3.1V12.8c0-1.7,1.7-3.1,3.7-3.1h1.1
		c0.4,0,0.8-0.1,1.1-0.2c1.2,0.8,5.7,3.4,11.6,3.4c3.3,0,7.2-0.9,11.1-3.3c0.3,0,0.6,0.1,0.9,0.1h1.1c2.1,0,3.7,1.4,3.7,3.1v32.7
		c0,1.7-1.7,3.1-3.7,3.1h-1.1h-0.1v1.6h0.1c0.7,0,1.1,0,1.1,0c3.1,0,5.6-2.1,5.6-4.6V12.8c0-2.6-2.6-4.6-5.6-4.6c-0.3,0-0.7,0-1.1,0
		c-4.1,0-6.5-3.9-12.4-3.9s-9.7,3.9-12.4,3.9c-0.6,0-0.9,0-1.1,0c-3.1,0-5.6,2.1-5.6,4.6v32.7c0,2.6,2.6,4.6,5.6,4.6
		c0,0,0.3,0,1.1,0c6,0,6.2-1.4,12.3-1.4c2.5,0,4,0.2,5.3,0.6v-1.6c-1.3-0.2-2.8-0.5-5.3-0.5C60.9,47.2,59.1,47.6,57.5,48z M64.2,5.8
		c2.6,0,4.4,0.9,6.3,2c1.2,0.6,2.5,1.3,4,1.7C65,15,56.6,10.8,54.1,9.3c0.9-0.3,1.6-0.7,2.6-1.1C58.7,7,61.1,5.8,64.2,5.8z"/>
	<path class="st0" d="M73.7,64.4c0-0.2,0-0.4,0-0.5c0-0.3,0-0.7-0.1-0.9c0-0.3,0-0.7,0-0.9c0-0.3,0-0.7,0-0.9c0-0.1,0-0.2,0-0.3h0.5
		c0.5,0,0.9-0.5,0.9-0.9v-5.5H76v-2.3H75v-3.6L71,47.8v4.3h-1v2.3h1v5.5c0,0.6,0.4,0.9,0.9,0.9h0.8c0,1.3,0,2.7,0.2,4.3
		c0.3-0.1,0.6-0.3,0.9-0.4C73.7,64.6,73.7,64.5,73.7,64.4z"/>
	<circle class="st0" cx="64.2" cy="8.7" r="1.5"/>
</g>
<g>
</g>
<g>
</g>
<g>
</g>
<g>
</g>
<g>
</g>
<g>
</g>
</svg>
