<?xml version="1.0" encoding="utf-8"?>
<!-- Generator: Adobe Illustrator 17.1.0, SVG Export Plug-In . SVG Version: 6.00 Build 0)  -->
<!DOCTYPE svg PUBLIC "-//W3C//DTD SVG 1.1//EN" "http://www.w3.org/Graphics/SVG/1.1/DTD/svg11.dtd">
<svg version="1.1" id="Layer_1" xmlns="http://www.w3.org/2000/svg" xmlns:xlink="http://www.w3.org/1999/xlink" x="0px" y="0px"
	 viewBox="0 0 48.4 56.6" style="enable-background:new 0 0 48.4 56.6;" xml:space="preserve">
<style type="text/css">
	.st0{fill:#B7DF60;}
</style>
<path class="st0" d="M1,56.2c0.9,0.7,2.9,0.5,3.7-0.5l16.2-21.1c3.4,1.9,7.3,2.8,11.4,2.3c10.1-1.3,17.3-10.6,15.9-20.7
	C47,6,37.7-1.2,27.6,0.2S10.3,10.8,11.6,20.9c0.5,4.1,2.4,7.7,5.1,10.5L0.5,52.5C-0.3,53.6-0.1,55.3,1,56.2z M31.7,31.6
	c-7.2,0.9-13.9-4.2-14.8-11.4S21,6.3,28.3,5.4s13.9,4.2,14.8,11.4C44,24.1,38.9,30.7,31.7,31.6z"/>
<g>
</g>
<g>
</g>
<g>
</g>
<g>
</g>
<g>
</g>
<g>
</g>
</svg>
