<?xml version="1.0" encoding="utf-8"?>
<!-- Generator: Adobe Illustrator 17.1.0, SVG Export Plug-In . SVG Version: 6.00 Build 0)  -->
<!DOCTYPE svg PUBLIC "-//W3C//DTD SVG 1.1//EN" "http://www.w3.org/Graphics/SVG/1.1/DTD/svg11.dtd">
<svg version="1.1" id="Layer_1" xmlns="http://www.w3.org/2000/svg" xmlns:xlink="http://www.w3.org/1999/xlink" x="0px" y="0px"
	 viewBox="0 0 130 70" style="enable-background:new 0 0 130 70;" xml:space="preserve">
<style type="text/css">
	.st0{fill:#004991;}
</style>
<g>
	<polygon class="st0" points="34.3,65.9 55.1,65.9 55.1,64.9 45.5,64.9 45.5,55.2 44.5,55.2 44.5,64.9 35.3,64.9 35.3,45.6 
		54.6,45.6 54.6,55.2 55.6,55.2 55.6,35.4 74.9,35.4 74.9,45.1 76,45.1 76,34.4 54.6,34.4 54.6,44.6 35.3,44.6 35.3,25.2 44.5,25.2 
		44.5,34.9 45.5,34.9 45.5,24.2 35.3,24.2 35.3,4.9 44.5,4.9 44.5,15.1 54.6,15.1 54.6,24.7 55.6,24.7 55.6,14.1 45.5,14.1 
		45.5,4.9 55.1,4.9 55.1,3.9 34.3,3.9 34.3,24.7 34.3,24.7 	"/>
	<polygon class="st0" points="65.3,4.9 74.9,4.9 74.9,24.2 65.8,24.2 65.8,14.6 64.8,14.6 64.8,25.2 76,25.2 76,4.9 95.3,4.9 
		95.3,14.1 85.6,14.1 85.6,15.1 95.3,15.1 95.3,24.2 85.1,24.2 85.1,45.1 86.1,45.1 86.1,25.2 95.3,25.2 95.3,64.9 76,64.9 76,55.7 
		85.6,55.7 85.6,54.7 74.9,54.7 74.9,64.9 65.8,64.9 65.8,45.1 64.8,45.1 64.8,65.9 96.3,65.9 96.3,3.9 65.3,3.9 	"/>
</g>
<g>
</g>
<g>
</g>
<g>
</g>
<g>
</g>
<g>
</g>
<g>
</g>
</svg>
