<?xml version="1.0" encoding="utf-8"?>
<!-- Generator: Adobe Illustrator 17.1.0, SVG Export Plug-In . SVG Version: 6.00 Build 0)  -->
<!DOCTYPE svg PUBLIC "-//W3C//DTD SVG 1.1//EN" "http://www.w3.org/Graphics/SVG/1.1/DTD/svg11.dtd">
<svg version="1.1" id="Layer_1" xmlns="http://www.w3.org/2000/svg" xmlns:xlink="http://www.w3.org/1999/xlink" x="0px" y="0px"
	 viewBox="0 0 107.3 103.7" style="enable-background:new 0 0 107.3 103.7;" xml:space="preserve">
<style type="text/css">
	.st0{fill:#F4F9EA;}
	.st1{fill:#BBBDBF;}
	.st2{fill:none;stroke:#BBBDBF;stroke-width:4;stroke-miterlimit:10;}
</style>
<g>
	<path class="st0" d="M107.2,79c0,0-8.5,16.7-17.7,21C79,105,44.1,88.5,44.1,88.5l16.6-41.8L93.8,58l8.8,7.9L107.2,79z"/>
	<path class="st1" d="M33,87.3c-1.8,0-3.3-1.4-3.3-3.2c0-1.8,1.4-3.3,3.2-3.3c1.8,0,3.3,1.4,3.3,3.2C36.2,85.8,34.8,87.2,33,87.3z
		 M18.3,84.4c-1.8,0-3.2,1.5-3.2,3.3c0,1.8,1.5,3.2,3.3,3.2c1.8,0,3.2-1.5,3.2-3.3C21.5,85.8,20,84.4,18.3,84.4z M28.2,93.9
		c-1.8,0-3.2,1.5-3.2,3.3c0,1.8,1.5,3.2,3.3,3.2c1.8,0,3.2-1.5,3.2-3.3C31.5,95.3,30,93.9,28.2,93.9z M24.9,74.7
		c0-1.8-1.5-3.2-3.3-3.2c-1.8,0-3.2,1.5-3.2,3.3c0,1.8,1.5,3.2,3.3,3.1C23.6,77.9,25,76.4,24.9,74.7z M36,67c-1.8,0-3.2,1.5-3.2,3.3
		c0,1.8,1.5,3.2,3.3,3.2c1.8,0,3.2-1.5,3.2-3.3C39.3,68.4,37.8,67,36,67z M38.5,12.6c-5-4.8-12.3-6-18.6-3.3
		c-0.8,0.4-1.2,1.3-0.8,2.1c0.4,0.8,1.3,1.2,2.1,0.8c5.1-2.2,11-1.2,15,2.6c1.3,1.2,2.3,2.7,3.1,4.4l9.5,21.5
		c0.1,0.2,0.2,0.4,0.4,0.5c0.5,0.4,1.1,0.6,1.8,0.3c0.8-0.4,1.2-1.3,0.8-2.1L42.3,18C41.3,15.9,40.1,14.1,38.5,12.6z M96.8,81.6
		c-0.8-0.3-1.8,0.1-2.1,0.9C92,89.6,84,93.1,77,90.3L55,81.8c-0.8-0.3-1.8,0.1-2.1,0.9c-0.2,0.6-0.1,1.3,0.4,1.8
		c0.2,0.1,0.3,0.3,0.5,0.3l21.9,8.5c8.7,3.4,18.5-1,21.9-9.7C98.1,82.8,97.6,81.9,96.8,81.6z"/>
	<path class="st2" d="M45.6,11.2C41.3,1.4,26.7,0.2,17.1,3.9C7.9,7.5-1.4,19.2,3.2,29.3c1.3,2.9,14.4,34,14.4,34l42.5-18
		C60,45.3,47.1,14.7,45.6,11.2z"/>
	<path class="st2" d="M78.8,101c10,3.6,21.8-6.6,25-16.3c3.3-9.9,1.2-23.4-9.2-27c-3-1-34.4-12.9-34.4-12.9L44.1,88
		C44.1,88,75.2,99.7,78.8,101z"/>
</g>
<g>
</g>
<g>
</g>
<g>
</g>
<g>
</g>
<g>
</g>
<g>
</g>
</svg>
