<svg xmlns="http://www.w3.org/2000/svg" xmlns:xlink="http://www.w3.org/1999/xlink" viewBox="0 0 100 125" version="1.1" x="0px" y="0px"><title>Artboard 1 Copy 116</title><desc>Created with Sketch.</desc><g stroke="none" stroke-width="1" fill="none" fill-rule="evenodd"><g fill="#000000"><path d="M30,38 C30,36.8954305 30.8915398,36 31.9972916,36 L68.0027084,36 C69.1057821,36 70,36.8877296 70,38 C70,39.1045695 69.1084602,40 68.0027084,40 L31.9972916,40 C30.8942179,40 30,39.1122704 30,38 Z M30,50 C30,48.8954305 30.8915398,48 31.9972916,48 L68.0027084,48 C69.1057821,48 70,48.8877296 70,50 C70,51.1045695 69.1084602,52 68.0027084,52 L31.9972916,52 C30.8942179,52 30,51.1122704 30,50 Z M30,62 C30,60.8954305 30.8915398,60 31.9972916,60 L68.0027084,60 C69.1057821,60 70,60.8877296 70,62 C70,63.1045695 69.1084602,64 68.0027084,64 L31.9972916,64 C30.8942179,64 30,63.1122704 30,62 Z"/></g></g><text x="0" y="115" fill="#000000" font-size="5px" font-weight="bold" font-family="'Helvetica Neue', Helvetica, Arial-Unicode, Arial, Sans-serif">Created by Nikita Tcherednikov</text><text x="0" y="120" fill="#000000" font-size="5px" font-weight="bold" font-family="'Helvetica Neue', Helvetica, Arial-Unicode, Arial, Sans-serif">from the Noun Project</text></svg>