<?xml version="1.0" encoding="utf-8"?>
<!-- Generator: Adobe Illustrator 17.1.0, SVG Export Plug-In . SVG Version: 6.00 Build 0)  -->
<!DOCTYPE svg PUBLIC "-//W3C//DTD SVG 1.1//EN" "http://www.w3.org/Graphics/SVG/1.1/DTD/svg11.dtd">
<svg version="1.1" id="Layer_1" xmlns="http://www.w3.org/2000/svg" xmlns:xlink="http://www.w3.org/1999/xlink" x="0px" y="0px"
	 viewBox="12.5 0 30 30" style="enable-background:new 12.5 0 30 30;" xml:space="preserve">
<style type="text/css">
	.st0{opacity:0.8;}
	.st1{fill:#FFFFFF;}
</style>
<title>Artboard 1 Copy 116</title>
<desc>Created with Sketch.</desc>
<g class="st0">
	<g>
		<path class="st1" d="M13.9,7.1c0-0.8,0.5-1.4,1.4-1.4h24.5c0.8,0,1.4,0.5,1.4,1.4s-0.5,1.4-1.4,1.4H15.2
			C14.4,8.5,13.9,7.9,13.9,7.1z M13.9,15c0-0.8,0.5-1.4,1.4-1.4h24.5c0.8,0,1.4,0.5,1.4,1.4s-0.5,1.4-1.4,1.4H15.2
			C14.4,16.4,13.9,15.8,13.9,15z M13.9,22.9c0-0.8,0.5-1.4,1.4-1.4h24.5c0.8,0,1.4,0.5,1.4,1.4s-0.5,1.4-1.4,1.4H15.2
			C14.4,24.3,13.9,23.5,13.9,22.9z"/>
	</g>
</g>
</svg>
