
<svg version="1.1" id="Layer_1" xmlns="http://www.w3.org/2000/svg" xmlns:xlink="http://www.w3.org/1999/xlink" x="0px" y="0px"
	 viewBox="0 0 28.6 20" style="enable-background:new 0 0 28.6 20;" xml:space="preserve">
<style type="text/css">
	.st-color{fill:#504f52;}
</style>
	<g>
		<path class="st-color" d="M0,1.4C0,0.6,0.6,0,1.4,0h25.7c0.8,0,1.4,0.6,1.4,1.4c0,0.8-0.6,1.4-1.4,1.4H1.4C0.6,2.9,0,2.2,0,1.4z M0,10
			c0-0.8,0.6-1.4,1.4-1.4h25.7c0.8,0,1.4,0.6,1.4,1.4c0,0.8-0.6,1.4-1.4,1.4H1.4C0.6,11.4,0,10.8,0,10z M0,18.6
			c0-0.8,0.6-1.4,1.4-1.4h25.7c0.8,0,1.4,0.6,1.4,1.4c0,0.8-0.6,1.4-1.4,1.4H1.4C0.6,20,0,19.4,0,18.6z"/>
	</g>
</svg>
