<?xml version="1.0" encoding="utf-8"?>
<!-- Generator: Adobe Illustrator 17.1.0, SVG Export Plug-In . SVG Version: 6.00 Build 0)  -->
<!DOCTYPE svg PUBLIC "-//W3C//DTD SVG 1.1//EN" "http://www.w3.org/Graphics/SVG/1.1/DTD/svg11.dtd">
<svg version="1.1" id="Layer_1" xmlns="http://www.w3.org/2000/svg" xmlns:xlink="http://www.w3.org/1999/xlink" x="0px" y="0px"
	 viewBox="0 0 100 121.4" style="enable-background:new 0 0 100 121.4;" xml:space="preserve">
<style type="text/css">
	.st0{fill:#F2F9EA;}
	.st1{fill:#BEBEBE;}
	.st2{fill:none;stroke:#BBBDBF;stroke-width:4;stroke-linejoin:round;stroke-miterlimit:10;}
	.st3{fill:none;stroke:#BBBDBF;stroke-width:3;stroke-miterlimit:10;}
</style>
<path class="st0" d="M96.8,96.8c0,0,2.4,14.7-6.8,19c-10.5,5-22.5-1.3-22.5-1.3L27.2,56.6h40.9L96.8,96.8z"/>
<g>
	<g>
		<path class="st1" d="M72.2,105.9c-0.6-0.8-0.4-2,0.5-2.6c0.8-0.6,2-0.4,2.6,0.5c1.6,2.3,5.9,5.1,10.9,2.8c0.9-0.4-0.9,1.9-3.5,2.7
			C77.8,111,74.9,109.9,72.2,105.9z M49.8,47.9L39.1,32.4c-0.6-0.8-0.4-2,0.5-2.6c0.8-0.6,2-0.4,2.6,0.5l10.6,15.5
			c0.6,0.8,0.4,2-0.5,2.6C51.5,48.9,50.4,48.7,49.8,47.9z"/>
	</g>
	
		<rect x="2.1" y="13.2" transform="matrix(0.8265 -0.5629 0.5629 0.8265 -7.1663 17.1172)" class="st2" width="44.2" height="13.9"/>
	<path class="st2" d="M96.4,96.1c3.8,6.3,0.3,16.4-5.6,20.1c-8.6,5.4-17.3,3.3-21.2-1.6c-2.2-2.8-54.8-79.5-54.8-79.5l26.8-18.5
		C41.6,16.6,94.7,93.3,96.4,96.1z"/>
	<line class="st3" x1="28.5" y1="56.6" x2="68.1" y2="56.6"/>
</g>
<g>
</g>
<g>
</g>
<g>
</g>
<g>
</g>
<g>
</g>
<g>
</g>
</svg>
